<svg id="Layer_1" data-name="Layer 1" xmlns="http://www.w3.org/2000/svg" xmlns:xlink="http://www.w3.org/1999/xlink" viewBox="0 0 501 501"><defs><style>.cls-1{fill:#331e36;stroke:url(#linear-gradient);}.cls-1,.cls-5,.cls-6,.cls-7{stroke-miterlimit:10;}.cls-2{fill:#f15f57;}.cls-2,.cls-3{opacity:0.8;}.cls-3{fill:#65bfec;}.cls-4{fill:#eef2f4;}.cls-5{fill:#64bfec;}.cls-5,.cls-6{stroke:#020202;stroke-width:8px;opacity:0.85;}.cls-6{fill:#f15f58;}.cls-7{fill:none;stroke:#000;stroke-width:5px;}</style><linearGradient id="linear-gradient" y1="250.5" x2="501" y2="250.5" gradientUnits="userSpaceOnUse"><stop offset="0" stop-color="#fff"/><stop offset="1"/></linearGradient></defs><title>logofinal2</title><rect class="cls-1" x="0.5" y="0.5" width="500" height="500" rx="69.87" ry="69.87"/><path class="cls-2" d="M261.57,283.92c0,19.19-2.82,37.11-7.7,52.27-9,27.93-27.27,38.81-43.17,46.51-18.7,9-87.81,30.11-97,3.84-5.48-15.76,27-86,35.65-105.63C172,230,182.61,185.15,210.7,185.15S261.57,229.37,261.57,283.92Z" transform="translate(0.23 1.52)"/><path class="cls-3" d="M239,288.73c0,19.19,2.82,37.11,7.7,52.27,9,27.93,27.27,38.81,43.17,46.51,18.7,9,87.81,30.11,97,3.84,5.48-15.76-27-86-35.65-105.63C328.55,234.8,317.93,190,289.83,190S239,234.18,239,288.73Z" transform="translate(0.23 1.52)"/><path class="cls-4" d="M312.54,233.65c0,22.48-4.74,43.26-12.76,60.1-12,25.29-31.49,41.72-53.44,41.72-21.73,0-44.24-9.07-56.31-33.94-8.24-17,5.11-45.07,5.11-67.88,0-25.11-8.55-50.13,1.25-67.88,12.14-22,29.73-33.94,50-33.94,18.13,0,46.12,10.12,58.08,28.28C316.58,178.57,312.54,205.3,312.54,233.65Z" transform="translate(0.23 1.52)"/><path class="cls-5" d="M264.89,168.63a187.46,187.46,0,0,1-21.11,18.3c-12.32,9.15-22.71,9.15-35.06,9.15-12.11,0-22.92-6.81-30-17.48a54.65,54.65,0,0,1-8.81-30.29c0-10.25,2.43-29.83,6.9-37.61l40.61,24Z" transform="translate(0.23 1.52)"/><path class="cls-6" d="M264.89,168.74a154.75,154.75,0,0,0,16.85,15.39c9.66,7.54,16.92,6.65,25.54,5.6,8.46-1,15.22-8.36,19-19,2.89-8.22,4-18.41,2.66-29.22-1.18-9.63-5.13-27.82-9.15-34.75l-25.61,26Z" transform="translate(0.23 1.52)"/><path class="cls-7" d="M156.7,257.91" transform="translate(0.23 1.52)"/></svg>